<svg width="1200" height="780" viewBox="0 0 1200 780" fill="none" xmlns="http://www.w3.org/2000/svg">
  <rect width="1200" height="780" rx="32" fill="#0E1726"/>
  <rect x="48" y="48" width="1104" height="684" rx="24" fill="#F8FAFC"/>
  <rect x="48" y="48" width="1104" height="76" rx="24" fill="#101820"/>
  <circle cx="92" cy="86" r="10" fill="#DC143C"/>
  <circle cx="126" cy="86" r="10" fill="#F59E0B"/>
  <circle cx="160" cy="86" r="10" fill="#10B981"/>
  <rect x="212" y="72" width="300" height="28" rx="14" fill="#263244"/>
  <rect x="88" y="156" width="250" height="508" rx="18" fill="#EEF2F7"/>
  <rect x="124" y="196" width="170" height="34" rx="10" fill="#111820"/>
  <rect x="124" y="270" width="178" height="42" rx="10" fill="#2563EB"/>
  <rect x="124" y="332" width="178" height="42" rx="10" fill="#FFFFFF" stroke="#CBD5E1" stroke-width="3"/>
  <rect x="124" y="394" width="178" height="42" rx="10" fill="#FFFFFF" stroke="#CBD5E1" stroke-width="3"/>
  <rect x="124" y="504" width="84" height="18" rx="9" fill="#94A3B8"/>
  <rect x="124" y="542" width="132" height="18" rx="9" fill="#94A3B8"/>
  <g transform="translate(390 156)">
    <rect width="670" height="508" rx="20" fill="#FFFFFF" stroke="#D7DEE8" stroke-width="4"/>
    <g stroke="#D7DEE8" stroke-width="2">
      <path d="M0 51H670"/><path d="M0 102H670"/><path d="M0 153H670"/><path d="M0 204H670"/><path d="M0 255H670"/><path d="M0 306H670"/><path d="M0 357H670"/><path d="M0 408H670"/><path d="M0 459H670"/>
      <path d="M67 0V508"/><path d="M134 0V508"/><path d="M201 0V508"/><path d="M268 0V508"/><path d="M335 0V508"/><path d="M402 0V508"/><path d="M469 0V508"/><path d="M536 0V508"/><path d="M603 0V508"/>
    </g>
    <rect x="67" y="51" width="67" height="51" fill="#DBEAFE"/>
    <rect x="134" y="102" width="67" height="51" fill="#DBEAFE"/>
    <rect x="201" y="153" width="67" height="51" fill="#DBEAFE"/>
    <rect x="268" y="204" width="67" height="51" fill="#BFDBFE"/>
    <rect x="335" y="255" width="67" height="51" fill="#93C5FD"/>
    <rect x="402" y="306" width="67" height="51" fill="#60A5FA"/>
    <rect x="469" y="357" width="67" height="51" fill="#3B82F6"/>
    <rect x="536" y="408" width="67" height="51" fill="#2563EB"/>
    <rect x="201" y="51" width="67" height="51" fill="#111820"/>
    <rect x="268" y="51" width="67" height="51" fill="#111820"/>
    <rect x="335" y="51" width="67" height="51" fill="#111820"/>
    <rect x="402" y="153" width="67" height="51" fill="#111820"/>
    <circle cx="100" cy="76" r="18" fill="#10B981"/>
    <circle cx="570" cy="434" r="18" fill="#DC143C"/>
  </g>
</svg>
